<?xml version="1.0" encoding="utf-8"?>
<!-- Generator: Adobe Illustrator 23.1.0, SVG Export Plug-In . SVG Version: 6.00 Build 0)  -->
<svg version="1.1" id="Layer_1" xmlns="http://www.w3.org/2000/svg" xmlns:xlink="http://www.w3.org/1999/xlink" x="0px" y="0px"
	 viewBox="0 0 15 37" style="enable-background:new 0 0 15 37;" xml:space="preserve">
<style type="text/css">
	.st0{fill:#E67D21;}
	.st1{fill:#31AB4D;}
</style>
<g>
	<path class="st0" d="M5.12,10.2c-3.26,1.12-5.19,4.32-4.87,7.6h4.58c0.52,0,0.94,0.42,0.94,0.94c0,0.26-0.1,0.49-0.27,0.66
		c-0.17,0.17-0.41,0.27-0.66,0.27H0.66L6.25,35.9c0.13,0.37,0.42,0.68,0.82,0.82c0.69,0.24,1.44-0.13,1.67-0.82l2.84-8.25H7.49
		c-0.52,0-0.94-0.42-0.94-0.94c0-0.52,0.42-0.94,0.94-0.94h4.73l2.17-6.3c0.51-1.48,0.55-3.15,0-4.74
		C13.08,10.91,8.93,8.88,5.12,10.2L5.12,10.2z"/>
	<path class="st1" d="M7.49,4.92c-0.88-2.5-3.3-4.08-6.31-3.8C0.82,4.95,3.47,7.77,7.16,7.76h0.66c3.7,0.01,6.34-2.82,5.98-6.64
		C10.79,0.85,8.37,2.42,7.49,4.92L7.49,4.92z"/>
</g>
</svg>
